<mxfile host="app.diagrams.net" agent="Mozilla/5.0 (Windows NT 10.0; Win64; x64) AppleWebKit/537.36 (KHTML, like Gecko) Chrome/136.0.0.0 Safari/537.36 Edg/136.0.0.0" version="27.0.3">
  <diagram id="R2lEEEUBdFMjLlhIrx00" name="Page-1">
    <mxGraphModel dx="450" dy="1333" grid="1" gridSize="10" guides="1" tooltips="1" connect="1" arrows="1" fold="1" page="1" pageScale="1" pageWidth="850" pageHeight="1100" math="0" shadow="0" extFonts="Permanent Marker^https://fonts.googleapis.com/css?family=Permanent+Marker">
      <root>
        <mxCell id="0" />
        <mxCell id="1" parent="0" />
        <mxCell id="XyRQ7dBo5zJN_Pz7w6I2-1" value="Oggetto" style="rounded=0;whiteSpace=wrap;html=1;" vertex="1" parent="1">
          <mxGeometry x="290" y="220" width="120" height="60" as="geometry" />
        </mxCell>
        <mxCell id="XyRQ7dBo5zJN_Pz7w6I2-4" value="Oggetti" style="rounded=0;whiteSpace=wrap;html=1;" vertex="1" parent="1">
          <mxGeometry x="280" y="-820" width="120" height="60" as="geometry" />
        </mxCell>
        <mxCell id="XyRQ7dBo5zJN_Pz7w6I2-5" value="" style="ellipse;whiteSpace=wrap;html=1;aspect=fixed;" vertex="1" parent="1">
          <mxGeometry x="280" y="-855" width="10" height="10" as="geometry" />
        </mxCell>
        <mxCell id="XyRQ7dBo5zJN_Pz7w6I2-7" value="" style="shape=waypoint;sketch=0;fillStyle=solid;size=6;pointerEvents=1;points=[];fillColor=none;resizable=0;rotatable=0;perimeter=centerPerimeter;snapToPoint=1;strokeWidth=3;" vertex="1" parent="1">
          <mxGeometry x="300" y="-865" width="20" height="20" as="geometry" />
        </mxCell>
        <mxCell id="XyRQ7dBo5zJN_Pz7w6I2-8" value="" style="endArrow=none;html=1;rounded=0;entryX=0.525;entryY=0.648;entryDx=0;entryDy=0;entryPerimeter=0;" edge="1" parent="1" target="XyRQ7dBo5zJN_Pz7w6I2-7">
          <mxGeometry width="50" height="50" relative="1" as="geometry">
            <mxPoint x="310" y="-820" as="sourcePoint" />
            <mxPoint x="360" y="-870" as="targetPoint" />
          </mxGeometry>
        </mxCell>
        <mxCell id="XyRQ7dBo5zJN_Pz7w6I2-9" value="Costo&lt;div&gt;base&lt;/div&gt;&lt;div&gt;&lt;br&gt;&lt;/div&gt;" style="text;html=1;align=center;verticalAlign=middle;resizable=0;points=[];autosize=1;strokeColor=none;fillColor=none;fontSize=7;" vertex="1" parent="1">
          <mxGeometry x="260" y="-880" width="40" height="40" as="geometry" />
        </mxCell>
        <mxCell id="XyRQ7dBo5zJN_Pz7w6I2-10" value="&lt;font&gt;Codice&lt;/font&gt;" style="text;html=1;align=center;verticalAlign=middle;resizable=0;points=[];autosize=1;strokeColor=none;fillColor=none;fontSize=7;" vertex="1" parent="1">
          <mxGeometry x="290" y="-875" width="50" height="20" as="geometry" />
        </mxCell>
        <mxCell id="XyRQ7dBo5zJN_Pz7w6I2-11" value="" style="ellipse;whiteSpace=wrap;html=1;aspect=fixed;" vertex="1" parent="1">
          <mxGeometry x="335" y="-850" width="10" height="10" as="geometry" />
        </mxCell>
        <mxCell id="XyRQ7dBo5zJN_Pz7w6I2-12" value="&lt;font&gt;dimensioni&lt;/font&gt;" style="text;html=1;align=center;verticalAlign=middle;resizable=0;points=[];autosize=1;strokeColor=none;fillColor=none;fontSize=7;" vertex="1" parent="1">
          <mxGeometry x="310" y="-865" width="60" height="20" as="geometry" />
        </mxCell>
        <mxCell id="XyRQ7dBo5zJN_Pz7w6I2-13" value="" style="ellipse;whiteSpace=wrap;html=1;aspect=fixed;" vertex="1" parent="1">
          <mxGeometry x="365" y="-860" width="10" height="10" as="geometry" />
        </mxCell>
        <mxCell id="XyRQ7dBo5zJN_Pz7w6I2-14" value="" style="ellipse;whiteSpace=wrap;html=1;aspect=fixed;" vertex="1" parent="1">
          <mxGeometry x="385" y="-860" width="10" height="10" as="geometry" />
        </mxCell>
        <mxCell id="XyRQ7dBo5zJN_Pz7w6I2-15" value="&lt;font&gt;stato&lt;/font&gt;" style="text;html=1;align=center;verticalAlign=middle;resizable=0;points=[];autosize=1;strokeColor=none;fillColor=none;fontSize=7;" vertex="1" parent="1">
          <mxGeometry x="345" y="-875" width="40" height="20" as="geometry" />
        </mxCell>
        <mxCell id="XyRQ7dBo5zJN_Pz7w6I2-16" value="" style="endArrow=none;html=1;rounded=0;exitX=0.5;exitY=0;exitDx=0;exitDy=0;entryX=0.5;entryY=1;entryDx=0;entryDy=0;" edge="1" parent="1" source="XyRQ7dBo5zJN_Pz7w6I2-4" target="XyRQ7dBo5zJN_Pz7w6I2-11">
          <mxGeometry width="50" height="50" relative="1" as="geometry">
            <mxPoint x="300" y="-840" as="sourcePoint" />
            <mxPoint x="350" y="-890" as="targetPoint" />
          </mxGeometry>
        </mxCell>
        <mxCell id="XyRQ7dBo5zJN_Pz7w6I2-17" value="" style="endArrow=none;html=1;rounded=0;entryX=0.5;entryY=1;entryDx=0;entryDy=0;exitX=0.75;exitY=0;exitDx=0;exitDy=0;" edge="1" parent="1" source="XyRQ7dBo5zJN_Pz7w6I2-4" target="XyRQ7dBo5zJN_Pz7w6I2-13">
          <mxGeometry width="50" height="50" relative="1" as="geometry">
            <mxPoint x="370" y="-820" as="sourcePoint" />
            <mxPoint x="350" y="-890" as="targetPoint" />
          </mxGeometry>
        </mxCell>
        <mxCell id="XyRQ7dBo5zJN_Pz7w6I2-18" value="" style="endArrow=none;html=1;rounded=0;exitX=0.04;exitY=0.022;exitDx=0;exitDy=0;exitPerimeter=0;entryX=0.5;entryY=1;entryDx=0;entryDy=0;" edge="1" parent="1" source="XyRQ7dBo5zJN_Pz7w6I2-4" target="XyRQ7dBo5zJN_Pz7w6I2-5">
          <mxGeometry width="50" height="50" relative="1" as="geometry">
            <mxPoint x="320" y="-830" as="sourcePoint" />
            <mxPoint x="370" y="-880" as="targetPoint" />
          </mxGeometry>
        </mxCell>
        <mxCell id="XyRQ7dBo5zJN_Pz7w6I2-20" value="" style="endArrow=none;html=1;rounded=0;exitX=0.921;exitY=0.049;exitDx=0;exitDy=0;exitPerimeter=0;entryX=0.5;entryY=1;entryDx=0;entryDy=0;" edge="1" parent="1" source="XyRQ7dBo5zJN_Pz7w6I2-4" target="XyRQ7dBo5zJN_Pz7w6I2-14">
          <mxGeometry width="50" height="50" relative="1" as="geometry">
            <mxPoint x="320" y="-830" as="sourcePoint" />
            <mxPoint x="370" y="-880" as="targetPoint" />
          </mxGeometry>
        </mxCell>
        <mxCell id="XyRQ7dBo5zJN_Pz7w6I2-21" value="descrizione" style="text;html=1;align=center;verticalAlign=middle;resizable=0;points=[];autosize=1;strokeColor=none;fillColor=none;fontSize=7;" vertex="1" parent="1">
          <mxGeometry x="370" y="-880" width="60" height="20" as="geometry" />
        </mxCell>
      </root>
    </mxGraphModel>
  </diagram>
</mxfile>
